<svg xmlns="http://www.w3.org/2000/svg" viewBox="0 0 727.43 219.57"><defs><style>.cls-1,.cls-2{fill:none;stroke:#fff;stroke-miterlimit:10;}.cls-1{stroke-width:5px;}.cls-2{stroke-width:2px;}.cls-3{fill:#fff;}</style></defs><g id="Calque_2" data-name="Calque 2"><g id="Calque_2-2" data-name="Calque 2"><path class="cls-1" d="M190.08,146A93.82,93.82,0,0,1,17,146"/><path class="cls-1" d="M20.56,66.08a93.81,93.81,0,0,1,166,0"/><path class="cls-2" d="M206.16,146A108.83,108.83,0,0,1,.94,146"/><path class="cls-2" d="M3.9,66.08a108.83,108.83,0,0,1,199.3,0"/><path class="cls-3" d="M140.16,106.85c0-9.64-1.4-18-3.46-22.31-7-18.84-25.45-20.7-25.45-20.7H73.08v85.79h38.17s17.88-1.79,25.12-19.83C138.61,125.75,140.16,117,140.16,106.85Z"/><path class="cls-3" d="M265.61,152.89H243.56v-89h22.05q10.69,0,16.24,5.07T287.4,83v50.69q0,9.18-5.48,14.18T265.61,152.89Zm12.2-19.18V83a10.65,10.65,0,0,0-3.22-7.67q-3.22-3.3-9-3.29H253.15v72.61h12.46q5.76,0,9-3.22A10.59,10.59,0,0,0,277.81,133.71Z"/><path class="cls-3" d="M322.33,152.89h-9.59v-89h9.59Z"/><path class="cls-3" d="M393.3,135.76q0,19.19-23.16,19.18T347,135.76V124.12h9.59v12.19A9.26,9.26,0,0,0,360,144q3.44,2.75,10.14,2.74T380.28,144a9,9,0,0,0,3.42-7.46,22.72,22.72,0,0,0-1-7.54,17.38,17.38,0,0,0-4.18-6L354.39,99.46a24.73,24.73,0,0,1-5.83-8.29A28.38,28.38,0,0,1,347,81q0-9.17,5.68-14.18t17.2-5q22,0,22.05,19.18V92.61h-9.58V80.42a9.57,9.57,0,0,0-3.22-7.68Q375.9,70,369.46,70t-9.66,2.74a9.37,9.37,0,0,0-3.22,7.54,23.5,23.5,0,0,0,1,7.53,15,15,0,0,0,4.24,5.76l24.53,23.56a27,27,0,0,1,5.48,8.43A29.58,29.58,0,0,1,393.3,135.76Z"/><path class="cls-3" d="M451.52,135.76v-7.53h9.59v7.53q0,9.18-5.62,14.18t-16.85,5q-11.24,0-17-5t-5.75-14.18V81q0-9.17,5.61-14.18t16.86-5q11.22,0,17,5T461.11,81V94h-9.59V81q0-11-13-11t-13,11v54.8q0,11,13,11T451.52,135.76Z"/><path class="cls-3" d="M529.61,81v54.8q0,9.18-5.83,14.18t-17.39,5q-11.58,0-17.47-5T483,135.76V81q0-9.17,5.82-14.18t17.4-5q11.57,0,17.47,5T529.61,81ZM520,135.76V81q0-11-13.7-11t-13.7,11v54.8q0,11,13.7,11T520,135.76Z"/><path class="cls-3" d="M581.25,152.89H566.87l-20.14-89h9.59L574,142.34l17.81-78.5h9.59Z"/><path class="cls-3" d="M654.14,135.76v-7.53h9.59v7.53q0,9.18-5.62,14.18t-16.85,5q-11.24,0-17-5t-5.75-14.18V81q0-9.17,5.61-14.18t16.85-5q11.24,0,17,5T663.73,81V111.1H628.11v24.66q0,11,13,11T654.14,135.76Zm-26-54.8v21.92h26V81q0-11-13-11T628.11,81Z"/><path class="cls-3" d="M698.66,152.89h-9.59v-89h4.11l4,10.14q4.4-12.2,14-12.2,16.3,0,16.3,17.81V88.5h-9.18V79.05q0-9-7.53-9-4.53,0-8.29,5.21t-3.77,15.07Z"/></g></g></svg>